<svg xmlns="http://www.w3.org/2000/svg" width="18.54" height="15.058" viewBox="0 0 18.54 15.058"><defs><style>.a{fill:#fff;}</style></defs><path class="a" d="M16.634,7.133c.012.165.012.329.012.494A10.737,10.737,0,0,1,5.835,18.439,10.738,10.738,0,0,1,0,16.733a7.861,7.861,0,0,0,.918.047,7.61,7.61,0,0,0,4.717-1.623,3.806,3.806,0,0,1-3.553-2.635,4.792,4.792,0,0,0,.718.059,4.019,4.019,0,0,0,1-.129A3.8,3.8,0,0,1,.753,8.722V8.675a3.827,3.827,0,0,0,1.718.482A3.805,3.805,0,0,1,1.294,4.075,10.8,10.8,0,0,0,9.129,8.051a4.289,4.289,0,0,1-.094-.871,3.8,3.8,0,0,1,6.576-2.6,7.481,7.481,0,0,0,2.412-.918,3.789,3.789,0,0,1-1.67,2.094,7.617,7.617,0,0,0,2.188-.588,8.168,8.168,0,0,1-1.906,1.965Z" transform="translate(0 -3.381)"/></svg>